<svg width="32" height="33" fill="none" xmlns="http://www.w3.org/2000/svg"><g clip-path="url(#clip0_1906_4812)" fill="#E30517"><path d="M7.5 11.604a.613.613 0 10-.867.868.613.613 0 00.866-.868zm8.296 16.751a2.147 2.147 0 00-1.728-3.415H3.65a2.13 2.13 0 00-1.516.628 2.13 2.13 0 00-.628 1.517c0 .475.155.914.417 1.27A3.066 3.066 0 00.28 31.068v.612c0 .339.275.613.613.613h15.93a.613.613 0 00.613-.613v-.612a3.066 3.066 0 00-1.641-2.713zM3 26.435a.913.913 0 01.65-.27h10.417a.92.92 0 010 1.839H3.65a.92.92 0 01-.65-1.57zm-1.494 4.633a1.84 1.84 0 011.838-1.838h11.03a1.84 1.84 0 011.838 1.838H1.507z"/><path d="M31.082 26.664a3.857 3.857 0 00-.738-.848l-2.863-2.497a.62.62 0 00-.244-.212l-1.731-1.51-8.014-6.992A1.82 1.82 0 0018 13.337a1.827 1.827 0 00-1.046-1.658l.741-.742a2.443 2.443 0 002.366-.633 2.435 2.435 0 00.718-1.733c0-.655-.255-1.27-.718-1.733l-5.199-5.199A2.436 2.436 0 0013.13.921a2.452 2.452 0 00-2.366 3.084l-7.398 7.397a2.468 2.468 0 00-.634-.083c-.655 0-1.27.255-1.733.718a2.454 2.454 0 000 3.466l5.199 5.2a2.444 2.444 0 001.733.716 2.451 2.451 0 002.366-3.083l.74-.74a1.838 1.838 0 001.66 1.045c.476 0 .925-.18 1.268-.508l8.536 9.808a.616.616 0 00.117.134l2.544 2.923a3.644 3.644 0 003.307 1.26c1.153-.16 2.15-.85 2.735-1.894a3.626 3.626 0 00-.12-3.7zM12.262 2.506c.232-.232.54-.36.867-.36.327 0 .635.128.867.36l5.199 5.198c.231.232.359.54.359.867a1.226 1.226 0 01-2.092.867l-5.2-5.2a1.227 1.227 0 010-1.732zm-3.465 17.33a1.227 1.227 0 01-1.734 0l-5.198-5.2a1.227 1.227 0 01.866-2.091c.327 0 .635.127.866.358l5.2 5.2a1.226 1.226 0 010 1.733zm2.58-4.313l-1.714 1.713-5.2-5.199 6.933-6.932 5.2 5.2-1.717 1.716-.017.016-3.464 3.464-.021.022zm2.187 1.278c0 .002-.002.003-.003.004l-.432.431a.609.609 0 01-.433.18.609.609 0 01-.44-1.038l3.48-3.481a.615.615 0 011.04.44.607.607 0 01-.18.433l-.43.43a.365.365 0 00-.008.008l-2.594 2.593zm1.27.465l1.79-1.791 7.582 6.613-2.766 2.767-6.607-7.59zm7.412 8.516l2.886-2.886.926.807-3.006 3.006-.806-.927zm7.888 3.983c-.396.706-1.064 1.172-1.834 1.279a2.435 2.435 0 01-2.212-.848l-2.23-2.56 3.125-3.125 2.558 2.231a2.42 2.42 0 01.593 3.023z"/><path d="M11.833 7.271a.613.613 0 00-.866 0l-2.6 2.6a.613.613 0 10.866.867l2.6-2.6a.613.613 0 000-.867z"/></g><defs><clipPath id="clip0_1906_4812"><path fill="#fff" transform="translate(0 .922)" d="M0 0h32v31.372H0z"/></clipPath></defs></svg>