<svg width="32" height="32" fill="none" xmlns="http://www.w3.org/2000/svg"><g clip-path="url(#clip0_1906_4829)"><path d="M31.946 19.513l.005-.002-5.254-11.463 1.274-.634-.476-.955-1.242.619-.168-.367a.533.533 0 00-.97 0l-.15.328A6.86 6.86 0 0022.08 6.4H17.6V5.334h1.066V4.267h-.916l.383-1.534a2.199 2.199 0 10-4.266 0l.383 1.534h-.917v1.067H14.4V6.4H9.923a6.86 6.86 0 00-2.888.64l-.15-.327a.533.533 0 00-.97 0l-.168.366-1.242-.621-.477.956 1.274.636L.05 19.511a.52.52 0 00-.049.223 3.738 3.738 0 003.733 3.733h5.334a3.738 3.738 0 003.733-3.733.52.52 0 00-.053-.221L7.478 8.006c.766-.355 1.6-.54 2.445-.54H14.4V26.98l-1.82 1.82h-1.913A2.67 2.67 0 008 31.467c0 .294.239.533.533.533h14.934a.533.533 0 00.533-.533 2.67 2.67 0 00-2.667-2.667h-1.912L17.6 26.98V7.466h4.48c.844 0 1.678.184 2.444.54L19.248 19.51a.52.52 0 00-.048.223 3.738 3.738 0 003.733 3.733h5.333A3.738 3.738 0 0032 19.734a.518.518 0 00-.054-.221zM9.066 22.4H3.734a2.67 2.67 0 01-2.613-2.133h10.56A2.67 2.67 0 019.067 22.4zm2.37-3.2H1.364l4.9-10.688a.523.523 0 00.272 0l4.9 10.688zm3.672-17.698a1.167 1.167 0 011.784 0c.216.275.292.633.207.972l-.449 1.793h-1.3l-.45-1.793a1.126 1.126 0 01.207-.972zm.358 4.898V5.334h1.067V6.4h-1.067zm1.067 1.067v19.2h-1.067v-19.2h1.067zm4.8 22.4c.678 0 1.282.428 1.509 1.066H9.158a1.603 1.603 0 011.509-1.066h10.666zm-3.42-1.067h-3.826l1.067-1.067h1.692l1.066 1.067zm7.55-20.287a.364.364 0 00.27-.01L30.634 19.2h-10.07l4.897-10.687zM28.265 22.4h-5.333a2.671 2.671 0 01-2.613-2.133h10.56a2.67 2.67 0 01-2.614 2.133z" fill="#E30517"/></g><defs><clipPath id="clip0_1906_4829"><path fill="#fff" d="M0 0h32v32H0z"/></clipPath></defs></svg>