<svg width="32" height="32" fill="none" xmlns="http://www.w3.org/2000/svg"><mask id="a" style="mask-type:luminance" maskUnits="userSpaceOnUse" x="0" y="0" width="32" height="32"><path d="M0 0h32v32H0V0z" fill="#fff"/></mask><g mask="url(#a)"><path d="M4.348 24.75c2.387 0 3.984-4.108 2.02-6.226a3.717 3.717 0 01-.903-3.35c.3-1.398 1.452-2.547 2.851-2.839.275-.058.545-.085.81-.085a3.75 3.75 0 013.75 3.75c0 .989-.387 1.882-1.015 2.547-1.74 1.847-.715 6.203 1.796 6.203M16 28.875H2.25V24.75H16v4.125zm-11.875 0v2.5h10v-2.5m11.875-5a3.75 3.75 0 11-7.5 0 3.75 3.75 0 017.5 0zM12.875 4.75H18.5M12.875 8.5H26m-9.375 3.75H26M16.625 16H26" stroke="#E30517" stroke-width="1.563" stroke-miterlimit="10" stroke-linecap="round" stroke-linejoin="round"/><path d="M20.375.625a.625.625 0 11-1.25 0 .625.625 0 011.25 0z" fill="#E30517"/><path d="M9.125 12.25V.625h7.813m5.625 0h7.187v30.75H14.125" stroke="#E30517" stroke-width="1.563" stroke-miterlimit="10" stroke-linecap="round" stroke-linejoin="round"/></g></svg>