<svg width="149" height="34" fill="none" xmlns="http://www.w3.org/2000/svg"><path d="M47.9 15.035c0 1.508-.41 2.71-1.21 3.627-.8.917-1.915 1.375-3.366 1.375h-3.2v7.16h-3.628V3.56l6.158-.039c1.432 0 2.679.516 3.683 1.566 1.023 1.05 1.526 2.31 1.526 3.8v6.148h.037zm-3.479-.974V9.708c0-1.165-.13-1.948-.41-2.33-.371-.477-1.134-.706-2.287-.706h-1.582v10.367l2.158.038c.856 0 1.451-.305 1.786-.897.224-.439.335-1.126.335-2.12zm16.332 8.095c0 1.47-.502 2.73-1.525 3.78-1.023 1.05-2.251 1.566-3.702 1.566h-.912c-1.432 0-2.679-.515-3.702-1.565-1.023-1.05-1.525-2.31-1.525-3.78V8.866c0-1.47.502-2.73 1.525-3.78 1.023-1.05 2.251-1.566 3.702-1.566h.912c1.432 0 2.679.516 3.702 1.566 1.023 1.05 1.525 2.31 1.525 3.78v13.29zm-3.497-.954V9.727c0-.917-.093-1.604-.28-2.024-.297-.65-.855-.955-1.636-.955-1.656 0-2.474.993-2.474 2.998V21.22c0 1.985.762 2.997 2.27 2.997 1.413-.038 2.12-1.03 2.12-3.016zM81.423 3.98l-4 23.237-3.72-.038-2.122-12.736-2.195 12.774-3.72-.038-3.89-23.199h3.61l2.12 15.733L69.74 3.98h3.683l2.12 15.733L77.777 3.98h3.647zm11.723 19.875v3.323H82.598V3.98l10.548-.039v3.323h-6.92v6.262h6.938v3.322h-6.939v7.007h6.92zm12.945 3.342h-3.497v-5.69c0-1.375-.465-2.272-1.377-2.673-.54-.21-1.581-.325-3.144-.325v8.688h-3.628V3.884l6.158-.038c1.433 0 2.679.534 3.702 1.584 1.023 1.05 1.526 2.31 1.526 3.8v4.01c0 .725-.224 1.489-.651 2.29-.428.822-.949 1.356-1.545 1.604.652.306 1.21.783 1.675 1.432.502.726.762 1.413.762 2.12v6.51h.019zm-3.739-14.931v-2.234c0-1.165-.168-1.967-.521-2.406-.354-.439-1.079-.649-2.214-.649h-1.563v8.267l2.177.038c1.432 0 2.121-1.011 2.121-3.016z" fill="#E30517"/><path d="M0 33.994l26.138-13.823 2.046-10.043-17.245 9.126C5.302 22.214 1.302 27.636 0 33.994z" fill="#820001"/><path d="M5.637 6.347l13.04 8.802 9.489-5.021-12.149-8.191c-3.98-2.692-9.394-.401-10.38 4.41z" fill="#E30517"/><path d="M122.003 27.521h-3.739V17.383h-3.349V27.52h-3.739V4.018h3.739v9.985h3.349V4.018h3.739V27.52zm12.706-3.379v3.36h-10.697V4.018l10.697-.039v3.36h-7.014v6.34h7.014v3.36h-7.014v7.103h7.014zm13.376 3.379h-3.535v-5.766c0-1.393-.465-2.31-1.395-2.71-.54-.21-1.6-.325-3.182-.325v8.802h-3.664V3.902l6.25-.038c1.451 0 2.698.535 3.74 1.604 1.041 1.07 1.544 2.348 1.544 3.838v4.067c0 .725-.224 1.508-.651 2.329-.428.82-.968 1.375-1.563 1.623.651.305 1.228.802 1.693 1.45.521.726.781 1.433.781 2.14v6.605h-.018zM144.308 12.4v-2.253c0-1.184-.167-2.005-.521-2.444-.353-.44-1.097-.65-2.232-.65h-1.582v8.363l2.214.039c1.414 0 2.121-1.012 2.121-3.055z" fill="#0D0A0B"/></svg>