<svg width="199" height="45" fill="none" xmlns="http://www.w3.org/2000/svg"><path d="M64.286 19.713c0 2.011-.55 3.615-1.623 4.837-1.074 1.222-2.572 1.833-4.52 1.833H53.85v9.546h-4.868V4.413l8.264-.05c1.922 0 3.595.686 4.943 2.087 1.374 1.4 2.048 3.08 2.048 5.066v8.197h.05zm-4.67-1.299V12.61c0-1.553-.174-2.596-.549-3.106-.499-.636-1.523-.941-3.07-.941h-2.123v13.823l2.896.05c1.149 0 1.948-.407 2.397-1.196.3-.585.45-1.502.45-2.825zM81.54 29.208c0 1.96-.674 3.64-2.047 5.041-1.373 1.4-3.021 2.087-4.968 2.087H73.3c-1.922 0-3.595-.687-4.969-2.087-1.373-1.4-2.047-3.08-2.047-5.04V11.49c0-1.96.674-3.64 2.047-5.04 1.374-1.4 3.022-2.088 4.97-2.088h1.222c1.923 0 3.596.687 4.97 2.088 1.372 1.4 2.046 3.08 2.046 5.04v17.718zm-4.694-1.272v-15.3c0-1.222-.124-2.139-.374-2.699-.4-.865-1.148-1.273-2.197-1.273-2.222 0-3.32 1.324-3.32 3.997v15.3c0 2.648 1.023 3.997 3.045 3.997 1.898-.051 2.847-1.375 2.847-4.022zm32.43-22.963l-5.368 30.982-4.993-.051-2.847-16.98-2.946 17.03-4.994-.05-5.218-30.93h4.844L90.6 25.95l2.996-20.977h4.944l2.846 20.977 2.996-20.977h4.894zm15.732 26.501v4.43h-14.156V4.974l14.156-.052v4.43h-9.288v8.35h9.313v4.43h-9.313v9.342h9.288zm17.376 4.455h-4.694v-7.586c0-1.833-.624-3.03-1.848-3.564-.724-.28-2.122-.433-4.219-.433v11.583h-4.869V4.846l8.264-.051c1.923 0 3.596.712 4.969 2.113 1.373 1.4 2.047 3.08 2.047 5.066v5.346c0 .967-.299 1.985-.874 3.055-.574 1.094-1.273 1.807-2.072 2.138.874.407 1.623 1.044 2.247 1.91.674.967 1.024 1.883 1.024 2.825v8.681h.025zm-5.019-19.908v-2.978c0-1.553-.224-2.622-.699-3.208-.474-.585-1.448-.865-2.971-.865h-2.097v11.023l2.921.05c1.922 0 2.846-1.349 2.846-4.022z" fill="#E30517"/><path d="M0 44.991l35.08-18.43 2.746-13.391-23.145 12.168C7.116 29.284 1.748 36.514 0 44.991z" fill="#820001"/><path d="M7.566 8.13L25.07 19.864l12.733-6.695-16.305-10.92c-5.343-3.59-12.608-.535-13.932 5.88z" fill="#E30517"/><path d="M163.738 36.361h-5.018V22.845h-4.494V36.36h-5.019V5.024h5.019v13.314h4.494V5.024h5.018V36.36zm17.052-4.506v4.48h-14.356V5.024l14.356-.05v4.48h-9.413v8.452h9.413v4.48h-9.413v9.47h9.413zm17.952 4.507h-4.744v-7.689c0-1.858-.624-3.08-1.872-3.614-.724-.28-2.148-.433-4.27-.433v11.736h-4.918V4.87l8.389-.051c1.947 0 3.62.713 5.018 2.138 1.398 1.426 2.073 3.132 2.073 5.117v5.423c0 .967-.3 2.01-.874 3.105-.575 1.095-1.299 1.833-2.098 2.164.874.408 1.648 1.07 2.272 1.935.7.967 1.049 1.91 1.049 2.851v8.809h-.025zm-5.068-20.163v-3.004c0-1.578-.225-2.673-.699-3.258-.475-.586-1.474-.866-2.997-.866h-2.122v11.15l2.971.052c1.898 0 2.847-1.35 2.847-4.074z" fill="#fff"/></svg>