<svg width="83" height="19" fill="none" xmlns="http://www.w3.org/2000/svg"><path d="M8.98 9.276c0 1.132-.299 2.034-.883 2.721-.584.688-1.4 1.031-2.459 1.031H3.301v5.37H.652V.67L5.15.642c1.046 0 1.956.386 2.69 1.174.747.787 1.114 1.733 1.114 2.85v4.61h.027zm-2.54-.73V5.281c0-.873-.095-1.46-.3-1.747-.27-.358-.828-.53-1.67-.53H3.315v7.776l1.576.029c.625 0 1.06-.23 1.304-.673.163-.33.245-.845.245-1.59zm11.927 6.072c0 1.102-.367 2.047-1.114 2.835-.747.788-1.644 1.174-2.703 1.174h-.666c-1.046 0-1.956-.386-2.704-1.174-.747-.788-1.114-1.733-1.114-2.835V4.65c0-1.102.367-2.048 1.114-2.835.748-.788 1.644-1.174 2.704-1.174h.666c1.046 0 1.956.386 2.703 1.174.747.787 1.114 1.733 1.114 2.835v9.967zm-2.554-.716V5.296c0-.688-.068-1.203-.204-1.518-.217-.487-.625-.716-1.195-.716-1.21 0-1.807.744-1.807 2.248v8.606c0 1.49.557 2.248 1.657 2.248 1.033-.028 1.549-.773 1.549-2.262zM33.46.985l-2.921 17.428-2.718-.03-1.548-9.55-1.603 9.58-2.717-.03L19.113.986h2.636l1.549 11.8 1.63-11.8h2.69l1.549 11.8 1.63-11.8h2.662zm8.56 14.907v2.491h-7.704V.985L42.02.956v2.492h-5.053v4.697h5.067v2.491h-5.067v5.256h5.053zm9.457 2.506h-2.554V14.13c0-1.03-.34-1.704-1.005-2.004-.394-.158-1.155-.244-2.296-.244v6.516h-2.65V.913L47.47.885c1.047 0 1.957.4 2.704 1.188.747.788 1.114 1.733 1.114 2.85V7.93c0 .544-.163 1.117-.476 1.718-.312.616-.692 1.017-1.127 1.203.475.23.883.587 1.223 1.074.366.544.557 1.06.557 1.59v4.883h.013zM48.747 7.2V5.524c0-.873-.123-1.475-.38-1.804-.26-.33-.789-.487-1.618-.487h-1.14v6.2l1.589.03c1.046 0 1.548-.76 1.548-2.263z" fill="#E30517"/><path d="M63.094 18.64h-2.73v-7.604h-2.446v7.604h-2.73V1.013h2.73v7.489h2.446v-7.49h2.73V18.64zm9.276-2.534v2.52h-7.81V1.013l7.81-.029v2.52h-5.12V8.26h5.121v2.52H67.25v5.327h5.121zm9.772 2.534h-2.58v-4.324c0-1.045-.34-1.733-1.02-2.033-.394-.158-1.168-.244-2.323-.244v6.602h-2.676V.927l4.565-.029c1.06 0 1.97.401 2.73 1.203.761.802 1.128 1.762 1.128 2.879v3.05c0 .544-.163 1.13-.476 1.747-.312.615-.706 1.03-1.14 1.217.475.229.896.601 1.236 1.088.38.544.57 1.074.57 1.604v4.955h-.014zM79.385 7.3V5.61c0-.888-.123-1.504-.38-1.833-.259-.33-.802-.487-1.63-.487h-1.156v6.272l1.617.029c1.032 0 1.549-.76 1.549-2.292z" fill="#0D0A0B"/></svg>