<svg width="109" height="60" fill="none" xmlns="http://www.w3.org/2000/svg"><path d="M.785 26.354c-.235 1.714.133 2.76.493 3.117.294.292 1.178.39 1.178-.39 0-.779 0-3.409 1.375-5.552 1.375-2.142 5.303-6.818 8.936-9.35 3.634-2.533 6.087-3.702 8.149-4.773 2.062-1.071 5.5-2.045 6.09-1.558.59.487-.393 2.142-.884 3.019-.294.877-5.302 8.084-5.695 8.669-.393.584-4.91 5.844-6.383 9.156-1.473 3.311-.688 5.357 2.553 4.967 3.24-.39 5.895-3.485 6.97-4.285.393-.293 6.287-5.065 6.483-5.065.197 0 .07.744.295 1.266.337.779 1.571 1.266 3.044 1.363 1.473.098 4.517-2.727 2.946-.487-1.571 2.24-.786 3.604-.688 3.994.099.39 1.179 2.435 3.928 1.558 2.75-.876 4.518-3.214 4.518-3.409 0-.195-.197-1.46-.884-.779-2.652 2.63-4.714 2.63-5.107 2.338-.392-.293-.392-1.364 1.08-3.799 1.474-2.435 7.908-9.416 8.444-9.796.687-.486.884-.097 1.77-.529.222-.108 2.65-1.948 3.829-2.922.59-.39.982-3.214-1.866-1.85-3.142 2.143-6.677 4.772-7.266 5.454-.59.682-3.437 3.994-4.027 4.773-.589.78-1.57.974-2.553 1.656-.982.682-4.615 2.435-5.302 1.46-.688-.973.982-2.727 1.374-3.213.393-.488 5.303-5.65 6.089-6.527.785-.876 6.088-5.357 6.579-5.746.49-.39 6.481-6.234 6.58-6.429.097-.195.588-1.266-.295-1.85-.884-.585-2.259 0-2.652.292-.393.292-3.928 2.63-5.302 3.896-1.375 1.266-8.15 8.28-9.133 9.545-.982 1.267-3.239 4.869-4.617 6.234-1.278 1.266-3.14 2.532-6.283 5.357-5.794 5.26-8.641 5.747-8.936 5.26-.295-.487-.002-.877 1.668-3.604 2.553-4.188 4.715-6.136 7.76-10.812 3.043-4.675 5.007-9.155 3.24-10.422-1.768-1.266-5.99 0-8.838 1.267-2.848 1.266-7.66 3.506-12.766 8.766s-5.6 7.597-5.894 9.74zm48.315-3.02c-.294.293-4.026 4.091-4.222 4.481-.49 1.85 1.375 2.143 1.67 2.045.294-.097.785-.584.981-.876.197-.292-.294-.39.197-.974.49-.585 2.848-2.922 3.142-3.312.295-.39.197-.974-.196-1.364-.393-.39-1.277-.292-1.571 0zm9.428-8.571c-.393-1.071-1.377-1.224-2.163-1.224-1.08 0-1.5.438-1.57.877-.295 1.85 0 1.948.49 2.045.491.098.884-.39.982-.487.098-.097.393-.292.59-.195.248.123.294.195.589.195.22 0 1.474-.14 1.082-1.21zm.096 4.133c.943-.545 3.34-.724 4.323-.432.687.39 1.355 1.384-.295 1.462-2.062.097-5.008 2.63-5.794 4.188-.785 1.558.099.292-.785 2.435-.884 2.143-1.964 2.143-2.259 2.045-.294-.097-.982-.292-.884-1.169.099-.876.884-2.824 2.16-4.675 1.277-1.85 2.356-3.172 3.534-3.854zm40.951-.529c-2.122 2.65-2.98 5.162-3.045 6.136-.142.877 1.179 1.17 1.572.877.392-.292.687-1.364.785-1.558.098-.195.688-.39.884-.682.196-.293-.393-.487 1.08-2.533 1.473-2.045 4.419-3.409 4.321-2.922-.098.487-2.455 7.598-2.455 8.474 0 .877-.098 2.533 2.455 3.312 2.354.718 3.142-.974 2.553-1.656-.589-.682-2.259.682-2.848-.682-.589-1.363.884-3.311 2.357-6.818 1.473-3.506.786-4.383.687-4.578-.098-.195-.785-.195-.982-.39-.196-.194-.098-.584-.392-.681-.295-.098-1.479-.155-1.768-.098l-.01.002c-.509.101-2.561.508-5.195 3.797z" fill="#14171D"/><path fill-rule="evenodd" clip-rule="evenodd" d="M67.758 19.73c-.294-.194-1.57-.389-4.32 2.436-2.332 2.395-2.828 3.32-3.044 3.723a2.11 2.11 0 01-.099.173c-.196.292-.589 1.656.491 2.435.486.35.873.583 1.15.75.341.204.52.311.52.419 0 .194-11.49 11.104-12.177 11.688-.152.13-.56.523-1.15 1.09-2.064 1.986-6.344 6.106-9.554 8.456-4.124 3.019-6.284 4.48-7.659 5.162-1.375.682-4.32 1.753-6.678.584-2.356-1.169-3.044-3.604-2.454-7.305.589-3.701 3.044-7.013 8.248-10.812-3.928.877-5.597 2.825-8.052 6.429-2.455 3.604-1.67 10.812-.393 12.273 1.277 1.46 3.634 1.85 4.42 1.85.063 0 .147.008.252.018 1.199.11 5.223.48 14.968-7.128 9.716-7.585 22.81-21.383 25.241-23.943.222-.235.356-.375.388-.408.181-.179 1.152-.791 2.253-1.486 1.291-.814 2.762-1.742 3.345-2.215 0 .78.589 2.63 1.276 3.02.366.207.08.432-.276.713-.48.378-1.087.857-.411 1.527.853.846 2.651.195 3.339-.098.545-.232 5.724-2.914 7.94-4.063.578-.3.955-.495.996-.515.048-.023.055.11.066.334.037.696.119 2.268 1.603 2.783 1.964.682 4.125.195 3.928-1.558-.039-.345-.793-.191-1.579-.031-.767.157-1.566.32-1.76.03-.392-.584.884-4.674 3.83-6.525 1.375-1.072-1.178-1.85-1.67-1.753-.039.007-.064-.109-.105-.301-.185-.862-.7-3.258-4.313-2.914-3.777.36-6.372 2.32-7.587 3.236-.427.323-.683.516-.76.466-.136-.09-.105-.264-.07-.453.04-.22.085-.462-.126-.619-.393-.292-2.652.098-6.383 3.312-2.703 2.328-4.427 4.35-5.321 5.398-.34.4-.561.658-.67.738-.392.292-1.767 1.267-2.454.487-.622-.704 3.495-4.675 4.724-5.86l.284-.276c.589-.584 0-1.19-.197-1.266zm14.239-1.266c3.22-2.415 5.663-2.175 6.481-1.753.295.152 1.375.974.393 2.727-.729 1.301-2.322 2.334-3.257 2.94-.325.21-.57.369-.671.47-.393.39-6.383 3.603-6.972 3.7-.59.098-2.259-.097-2.062-1.558.196-1.46 2.062-3.506 6.088-6.526z" fill="#14171D"/></svg>