<svg width="149" height="34" viewBox="0 0 149 34" fill="none" xmlns="http://www.w3.org/2000/svg">
<path d="M47.9 15.0346C47.9 16.5429 47.4907 17.7458 46.6908 18.6622C45.8908 19.5787 44.7746 20.0369 43.3236 20.0369H40.1238V27.1968H36.4961V3.55967L42.6538 3.52148C44.0863 3.52148 45.3327 4.03699 46.3373 5.08711C47.3605 6.13722 47.8628 7.39737 47.8628 8.88662V15.0346H47.9ZM44.4212 14.0608V9.70762C44.4212 8.54294 44.2909 7.76013 44.0119 7.37827C43.6398 6.90094 42.8771 6.67183 41.7237 6.67183H40.1424V17.0393L42.3004 17.0775C43.1561 17.0775 43.7514 16.772 44.0863 16.1801C44.3095 15.741 44.4212 15.0537 44.4212 14.0608Z" fill="#E30517"/>
<path d="M60.7534 22.1563C60.7534 23.6264 60.2511 24.8866 59.2279 25.9367C58.2048 26.9868 56.9769 27.5023 55.5259 27.5023H54.6143C53.1818 27.5023 51.9354 26.9868 50.9122 25.9367C49.889 24.8866 49.3867 23.6264 49.3867 22.1563V8.86753C49.3867 7.39736 49.889 6.13722 50.9122 5.08711C51.9354 4.03699 53.1632 3.52148 54.6143 3.52148H55.5259C56.9583 3.52148 58.2048 4.03699 59.2279 5.08711C60.2511 6.13722 60.7534 7.39736 60.7534 8.86753V22.1563ZM57.256 21.2016V9.72671C57.256 8.81025 57.163 8.1229 56.9769 7.70285C56.6793 7.05369 56.1212 6.7482 55.3398 6.7482C53.6841 6.7482 52.8656 7.74104 52.8656 9.7458V21.2207C52.8656 23.2064 53.6283 24.2183 55.1352 24.2183C56.549 24.1801 57.256 23.1873 57.256 21.2016Z" fill="#E30517"/>
<path d="M81.4226 3.98047L77.4228 27.2167L73.7022 27.1785L71.5814 14.4434L69.3861 27.2167L65.6655 27.1785L61.7773 3.98047H65.3864L67.5072 19.7131L69.7396 3.98047H73.4231L75.5439 19.7131L77.7763 3.98047H81.4226Z" fill="#E30517"/>
<path d="M93.1458 23.8554V27.1776H82.5977V3.97959L93.1458 3.94141V7.26359H86.2253V13.5261H93.1644V16.8483H86.2253V23.8554H93.1458Z" fill="#E30517"/>
<path d="M106.091 27.1965H102.594V21.5067C102.594 20.132 102.129 19.2347 101.217 18.8337C100.677 18.6237 99.6357 18.5091 98.073 18.5091V27.1965H94.4453V3.88389L100.603 3.8457C102.036 3.8457 103.282 4.38031 104.305 5.43043C105.328 6.48054 105.831 7.74068 105.831 9.22993V13.2395C105.831 13.965 105.607 14.7287 105.18 15.5306C104.752 16.3516 104.231 16.8862 103.635 17.1344C104.287 17.4399 104.845 17.9172 105.31 18.5664C105.812 19.2919 106.072 19.9793 106.072 20.6857V27.1965H106.091ZM102.352 12.2657V10.0318C102.352 8.86717 102.184 8.06526 101.831 7.62612C101.477 7.18698 100.752 6.97696 99.6171 6.97696H98.0544V15.2442L100.231 15.2824C101.663 15.2824 102.352 14.2705 102.352 12.2657Z" fill="#E30517"/>
<path d="M0 33.9942L26.1378 20.1708L28.1842 10.1279L10.9388 19.2544C5.30198 22.2138 1.30224 27.6362 0 33.9942Z" fill="#820001"/>
<path d="M5.63672 6.34742L18.6777 15.1493L28.1655 10.1278L16.0174 1.93693C12.0363 -0.755179 6.6227 1.53598 5.63672 6.34742Z" fill="#E30517"/>
<path d="M122.003 27.5211H118.264V17.3827H114.915V27.5211H111.176V4.01758H114.915V14.0032H118.264V4.01758H122.003V27.5211Z" fill="#0D0A0B"/>
<path d="M134.709 24.1417V27.5021H124.012V4.01768L134.709 3.97949V7.33986H127.695V13.6787H134.709V17.0391H127.695V24.1417H134.709Z" fill="#0D0A0B"/>
<path d="M148.085 27.5215H144.55V21.7554C144.55 20.3616 144.085 19.4451 143.155 19.0442C142.615 18.8342 141.555 18.7196 139.973 18.7196V27.5215H136.309V3.90342L142.559 3.86523C144.01 3.86523 145.257 4.39984 146.299 5.46905C147.34 6.53825 147.843 7.81749 147.843 9.30674V13.3736C147.843 14.0991 147.619 14.8819 147.192 15.7029C146.764 16.5239 146.224 17.0776 145.629 17.3258C146.28 17.6313 146.857 18.1277 147.322 18.7769C147.843 19.5024 148.103 20.2089 148.103 20.9153V27.5215H148.085ZM144.308 12.3998V10.1468C144.308 8.96307 144.141 8.14207 143.787 7.70293C143.434 7.26379 142.69 7.05377 141.555 7.05377H139.973V15.4165L142.187 15.4547C143.601 15.4547 144.308 14.4428 144.308 12.3998Z" fill="#0D0A0B"/>
</svg>
