<svg width="199" height="45" viewBox="0 0 199 45" fill="none" xmlns="http://www.w3.org/2000/svg">
<path d="M64.2857 19.7128C64.2857 21.724 63.7364 23.3278 62.6628 24.5497C61.5892 25.7717 60.0911 26.3827 58.1436 26.3827H53.8492V35.9292H48.9805V4.41297L57.2448 4.36206C59.1673 4.36206 60.8402 5.0494 62.1884 6.44956C63.5616 7.84971 64.2358 9.5299 64.2358 11.5156V19.7128H64.2857ZM59.6167 18.4145V12.6102C59.6167 11.0573 59.442 10.0136 59.0674 9.50444C58.5681 8.86801 57.5444 8.56252 55.9964 8.56252H53.8741V22.3859L56.7704 22.4368C57.9189 22.4368 58.7179 22.0295 59.1673 21.2403C59.4669 20.6548 59.6167 19.7383 59.6167 18.4145Z" fill="#E30517"/>
<path d="M81.5405 29.2084C81.5405 31.1686 80.8663 32.8488 79.4931 34.249C78.1199 35.6491 76.472 36.3365 74.5245 36.3365H73.3011C71.3786 36.3365 69.7057 35.6491 68.3325 34.249C66.9593 32.8488 66.2852 31.1686 66.2852 29.2084V11.4901C66.2852 9.5299 66.9593 7.84971 68.3325 6.44956C69.7057 5.0494 71.3536 4.36206 73.3011 4.36206H74.5245C76.447 4.36206 78.1199 5.0494 79.4931 6.44956C80.8663 7.84971 81.5405 9.5299 81.5405 11.4901V29.2084ZM76.8465 27.9356V12.6357C76.8465 11.4137 76.7217 10.4973 76.472 9.93722C76.0725 9.07167 75.3235 8.66435 74.2748 8.66435C72.0527 8.66435 70.9541 9.98813 70.9541 12.6612V27.961C70.9541 30.6086 71.9778 31.9578 74.0002 31.9578C75.8977 31.9069 76.8465 30.5831 76.8465 27.9356Z" fill="#E30517"/>
<path d="M109.276 4.97314L103.908 35.9547L98.9145 35.9038L96.0682 18.9238L93.122 35.9547L88.1284 35.9038L82.9102 4.97314H87.7539L90.6002 25.95L93.5964 4.97314H98.54L101.386 25.95L104.382 4.97314H109.276Z" fill="#E30517"/>
<path d="M125.008 31.4745V35.9041H110.852V4.9734L125.008 4.92249V9.35207H115.72V17.7021H125.033V22.1316H115.72V31.4745H125.008Z" fill="#E30517"/>
<path d="M142.384 35.929H137.69V28.3427C137.69 26.5098 137.066 25.3133 135.842 24.7787C135.118 24.4987 133.72 24.3459 131.623 24.3459V35.929H126.754V4.8456L135.018 4.79468C136.941 4.79468 138.614 5.50749 139.987 6.90764C141.36 8.3078 142.034 9.98798 142.034 11.9737V17.3197C142.034 18.2871 141.735 19.3054 141.16 20.3746C140.586 21.4692 139.887 22.182 139.088 22.513C139.962 22.9203 140.711 23.5567 141.335 24.4223C142.009 25.3897 142.359 26.3061 142.359 27.2481V35.929H142.384ZM137.365 16.0214V13.0429C137.365 11.49 137.141 10.4208 136.666 9.83524C136.192 9.24972 135.218 8.96969 133.695 8.96969H131.598V19.9927L134.519 20.0436C136.441 20.0436 137.365 18.6944 137.365 16.0214Z" fill="#E30517"/>
<path d="M0 44.9914L35.0797 26.5602L37.8262 13.1697L14.6811 25.3383C7.11582 29.2842 1.74774 36.5141 0 44.9914Z" fill="#820001"/>
<path d="M7.56641 8.12941L25.0688 19.8652L37.8024 13.17L21.4984 2.24876C16.1553 -1.34073 8.8897 1.71416 7.56641 8.12941Z" fill="#E30517"/>
<path d="M163.738 36.3615H158.72V22.8437H154.226V36.3615H149.207V5.02356H154.226V18.3377H158.72V5.02356H163.738V36.3615Z" fill="white"/>
<path d="M180.79 31.8554V36.3359H166.434V5.02333L180.79 4.97241V9.45291H171.377V17.9047H180.79V22.3852H171.377V31.8554H180.79Z" fill="white"/>
<path d="M198.742 36.3616H193.998V28.6735C193.998 26.8151 193.374 25.5931 192.126 25.0585C191.402 24.7785 189.978 24.6258 187.856 24.6258V36.3616H182.938V4.87086L191.327 4.81995C193.274 4.81995 194.947 5.53275 196.345 6.95836C197.743 8.38397 198.418 10.0896 198.418 12.0753V17.4977C198.418 18.4651 198.118 19.5088 197.544 20.6035C196.969 21.6982 196.245 22.4364 195.446 22.7674C196.32 23.1747 197.094 23.8366 197.718 24.7021C198.418 25.6695 198.767 26.6114 198.767 27.5534V36.3616H198.742ZM193.674 16.1994V13.1954C193.674 11.6171 193.449 10.5224 192.975 9.93687C192.5 9.35135 191.501 9.07133 189.978 9.07133H187.856V20.2216L190.827 20.2726C192.725 20.2726 193.674 18.9233 193.674 16.1994Z" fill="white"/>
</svg>
