<svg width="83" height="19" viewBox="0 0 83 19" fill="none" xmlns="http://www.w3.org/2000/svg">
<path d="M8.9802 9.27641C8.9802 10.4077 8.68132 11.3098 8.09715 11.9972C7.51297 12.6845 6.69785 13.0282 5.63819 13.0282H3.3015V18.3981H0.652344V0.670238L5.14911 0.641602C6.19519 0.641602 7.10541 1.02823 7.83902 1.81582C8.58622 2.60341 8.95302 3.54851 8.95302 4.66545V9.27641H8.9802ZM6.43972 8.5461V5.2812C6.43972 4.4077 6.34463 3.82058 6.14085 3.53419C5.86914 3.1762 5.31214 3.00436 4.46984 3.00436H3.31508V10.78L4.89099 10.8086C5.51592 10.8086 5.95065 10.5795 6.19519 10.1356C6.35821 9.80624 6.43972 9.29073 6.43972 8.5461Z" fill="#E30517"/>
<path d="M18.3671 14.6177C18.3671 15.7203 18.0003 16.6654 17.2531 17.453C16.5059 18.2406 15.6093 18.6272 14.5496 18.6272H13.8839C12.8378 18.6272 11.9276 18.2406 11.1804 17.453C10.4332 16.6654 10.0664 15.7203 10.0664 14.6177V4.65113C10.0664 3.54851 10.4332 2.60341 11.1804 1.81582C11.9276 1.02823 12.8242 0.641602 13.8839 0.641602H14.5496C15.5957 0.641602 16.5059 1.02823 17.2531 1.81582C18.0003 2.60341 18.3671 3.54851 18.3671 4.65113V14.6177ZM15.813 13.9017V5.29552C15.813 4.60817 15.7451 4.09266 15.6093 3.77763C15.3919 3.29076 14.9843 3.06164 14.4137 3.06164C13.2046 3.06164 12.6069 3.80627 12.6069 5.30984V13.916C12.6069 15.4053 13.1639 16.1642 14.2643 16.1642C15.2968 16.1356 15.813 15.3909 15.813 13.9017Z" fill="#E30517"/>
<path d="M33.4595 0.985352L30.5386 18.4125L27.8215 18.3839L26.2728 8.83257L24.6697 18.4125L21.9526 18.3839L19.1133 0.985352H21.7488L23.2976 12.7848L24.9278 0.985352H27.6177L29.1665 12.7848L30.7967 0.985352H33.4595Z" fill="#E30517"/>
<path d="M42.0193 15.8916V18.3832H34.3164V0.984696L42.0193 0.956055V3.4477H36.9656V8.14457H42.0329V10.6362H36.9656V15.8916H42.0193Z" fill="#E30517"/>
<path d="M51.4771 18.3978H48.9231V14.1305C48.9231 13.0995 48.5834 12.4265 47.9177 12.1258C47.5238 11.9683 46.763 11.8823 45.6218 11.8823V18.3978H42.9727V0.913407L47.4694 0.884766C48.5155 0.884766 49.4257 1.28572 50.1729 2.07331C50.9201 2.86089 51.2869 3.806 51.2869 4.92294V7.93009C51.2869 8.47424 51.1239 9.04703 50.8114 9.64846C50.499 10.2642 50.1186 10.6652 49.6838 10.8513C50.1593 11.0804 50.5669 11.4384 50.9065 11.9253C51.2733 12.4694 51.4635 12.985 51.4635 13.5148V18.3978H51.4771ZM48.7465 7.19978V5.52437C48.7465 4.65086 48.6242 4.04943 48.3661 3.72008C48.1079 3.39073 47.5781 3.23321 46.7494 3.23321H45.6082V9.43366L47.1977 9.4623C48.2438 9.4623 48.7465 8.70335 48.7465 7.19978Z" fill="#E30517"/>
<path d="M63.0942 18.6403H60.3635V11.0365H57.9182V18.6403H55.1875V1.0127H57.9182V8.50193H60.3635V1.0127H63.0942V18.6403Z" fill="#0D0A0B"/>
<path d="M72.3702 16.106V18.6263H64.5586V1.01302L72.3702 0.984375V3.50465H67.2485V8.25881H72.3702V10.7791H67.2485V16.106H72.3702Z" fill="#0D0A0B"/>
<path d="M82.1425 18.6406H79.5613V14.316C79.5613 13.2707 79.2217 12.5834 78.5424 12.2826C78.1484 12.1251 77.3741 12.0392 76.2193 12.0392V18.6406H73.543V0.927079L78.1077 0.898438C79.1673 0.898438 80.0776 1.29939 80.8383 2.1013C81.5991 2.9032 81.9659 3.86263 81.9659 4.97957V8.02968C81.9659 8.57383 81.8029 9.16094 81.4904 9.77668C81.178 10.3924 80.784 10.8077 80.3493 10.9939C80.8247 11.223 81.2459 11.5953 81.5855 12.0822C81.9659 12.6263 82.1561 13.1561 82.1561 13.686V18.6406H82.1425ZM79.3847 7.29937V5.60964C79.3847 4.72181 79.2624 4.10606 79.0043 3.77671C78.7462 3.44735 78.2028 3.28984 77.3741 3.28984H76.2193V9.56189L77.836 9.59053C78.8684 9.59053 79.3847 8.83158 79.3847 7.29937Z" fill="#0D0A0B"/>
</svg>
