<svg width="26" height="19" viewBox="0 0 26 19" fill="none" xmlns="http://www.w3.org/2000/svg">
<path d="M5.08149 19C3.55008 19 2.32031 18.5037 1.39219 17.5112C0.464063 16.4714 0 15.1007 0 13.3993C0 10.3271 0.974532 7.70398 2.9236 5.52985C4.87266 3.30846 7.26259 1.46517 10.0934 0L11.0679 1.41791C9.90774 2.17413 8.8172 3.1194 7.79626 4.25373C6.77532 5.3408 5.98641 6.54602 5.42954 7.8694L7.30899 9.28731C8.05149 9.85448 8.65477 10.5634 9.11884 11.4142C9.5829 12.2177 9.81493 13.0211 9.81493 13.8246C9.81493 15.2898 9.35087 16.5187 8.42274 17.5112C7.54102 18.5037 6.42727 19 5.08149 19ZM19.3514 19C17.82 19 16.5903 18.5037 15.6621 17.5112C14.734 16.4714 14.2699 15.1007 14.2699 13.3993C14.2699 10.3271 15.2445 7.70398 17.1935 5.52985C19.1426 3.30846 21.5325 1.46517 24.3633 0L25.3378 1.41791C24.1777 2.17413 23.0871 3.1194 22.0662 4.25373C21.0453 5.3408 20.2563 6.54602 19.6995 7.8694L21.5789 9.28731C22.3214 9.85448 22.9247 10.5634 23.3888 11.4142C23.8528 12.2177 24.0849 13.0211 24.0849 13.8246C24.0849 15.2898 23.6208 16.5187 22.6927 17.5112C21.811 18.5037 20.6972 19 19.3514 19Z" fill="#0D0A0B"/>
</svg>
