<svg width="109" height="60" viewBox="0 0 109 60" fill="none" xmlns="http://www.w3.org/2000/svg">
<path d="M0.785353 26.354C0.549678 28.0683 0.91791 29.1138 1.27797 29.4709C1.5723 29.7631 2.45635 29.8605 2.45635 29.0813C2.45635 28.3021 2.45652 25.6722 3.83129 23.5293C5.20607 21.3865 9.13399 16.7112 12.7673 14.1787C16.4007 11.6462 18.8538 10.4774 20.916 9.40597C22.9781 8.33454 26.4169 7.36052 27.0061 7.84752C27.5953 8.33452 26.6133 9.99039 26.1223 10.867C25.8277 11.7436 20.8196 18.9514 20.4268 19.5358C20.034 20.1203 15.5169 25.38 14.0439 28.6917C12.5709 32.0034 13.3565 34.0488 16.5971 33.6592C19.8376 33.2696 22.4919 30.1735 23.5673 29.3735C23.9601 29.0813 29.8538 24.3086 30.0502 24.3086C30.2466 24.3086 30.1193 25.0528 30.3448 25.5748C30.6815 26.354 31.916 26.841 33.389 26.9384C34.8619 27.0358 37.9061 24.2112 36.3349 26.4514C34.7637 28.6917 35.5493 30.0553 35.6475 30.4449C35.7457 30.8345 36.8259 32.88 39.5754 32.0034C42.325 31.1268 44.0926 28.7891 44.0926 28.5943C44.0926 28.3995 43.8962 27.1332 43.2088 27.8151C40.5574 30.4449 38.4953 30.4449 38.1025 30.1527C37.7097 29.8605 37.7097 28.7891 39.1827 26.354C40.6556 23.919 47.0899 16.9383 47.6259 16.5585C48.3133 16.0715 48.5097 16.4611 49.3953 16.0293C49.6182 15.9207 52.0466 14.0813 53.225 13.1073C53.8142 12.7177 54.207 9.89298 51.3592 11.2566C48.2169 13.3995 44.6818 16.0293 44.0926 16.7112C43.5034 17.393 40.6556 20.7047 40.0664 21.4839C39.4772 22.2631 38.4953 22.4579 37.5133 23.1397C36.5313 23.8216 32.898 25.5748 32.2106 24.6008C31.5232 23.6268 33.1926 21.8735 33.5854 21.3865C33.9781 20.8995 38.8881 15.7371 39.6736 14.8605C40.4592 13.9839 45.7619 9.50337 46.2529 9.11376C46.7439 8.72415 52.734 2.88 52.8322 2.68519C52.9304 2.49039 53.4214 1.41895 52.5376 0.834531C51.6538 0.250115 50.279 0.834531 49.8863 1.12674C49.4935 1.41895 45.9583 3.75662 44.5836 5.02285C43.2088 6.28909 36.4331 13.3021 35.4511 14.5683C34.4691 15.8345 32.2124 19.4368 30.834 20.8021C29.5556 22.0683 27.6935 23.3345 24.5511 26.1592C18.7574 31.4189 15.9097 31.906 15.6151 31.4189C15.3205 30.9319 15.6133 30.5423 17.2826 27.8151C19.8358 23.6268 21.998 21.6787 25.0421 17.0034C28.0862 12.328 30.0502 7.84752 28.2827 6.58129C26.5151 5.31505 22.2926 6.58129 19.4448 7.84752C16.5971 9.11375 11.7853 11.354 6.67904 16.6138C1.57273 21.8735 1.07995 24.2112 0.785353 26.354Z" fill="#14171D"/>
<path d="M49.1007 23.3345C48.8061 23.6268 45.0745 27.4255 44.8781 27.8151C44.3872 29.6657 46.2529 29.9579 46.5475 29.8605C46.8421 29.7631 47.3331 29.2761 47.5295 28.9839C47.7259 28.6917 47.2349 28.5943 47.7259 28.0099C48.2169 27.4255 50.5736 25.0878 50.8682 24.6982C51.1628 24.3086 51.0646 23.7242 50.6718 23.3345C50.279 22.9449 49.3953 23.0423 49.1007 23.3345Z" fill="#14171D"/>
<path d="M58.5277 14.7631C58.1349 13.6917 57.1511 13.539 56.3655 13.539C55.2854 13.539 54.8641 13.9773 54.7944 14.4156C54.4998 16.2663 54.7944 16.3637 55.2854 16.4611C55.7763 16.5585 56.1691 16.0715 56.2673 15.9741C56.3655 15.8767 56.6601 15.6819 56.8565 15.7793C57.1049 15.9025 57.1511 15.9741 57.4457 15.9741C57.6653 15.9741 58.9205 15.8345 58.5277 14.7631Z" fill="#14171D"/>
<path d="M58.6241 18.8962C59.5668 18.3507 61.9646 18.1722 62.9466 18.4644C63.634 18.854 64.3017 19.8475 62.652 19.9255C60.5898 20.0229 57.6439 22.5553 56.8583 24.1138C56.0727 25.6722 56.9565 24.406 56.0727 26.5488C55.1889 28.6917 54.1088 28.6917 53.8142 28.5943C53.5196 28.4969 52.8322 28.3021 52.9304 27.4255C53.0286 26.5488 53.8142 24.6008 55.0907 22.7501C56.3673 20.8995 57.4457 19.578 58.6241 18.8962Z" fill="#14171D"/>
<path d="M99.5745 18.367C97.4534 21.0164 96.5958 23.5293 96.5304 24.5034C96.3885 25.38 97.7088 25.6722 98.1016 25.38C98.4943 25.0878 98.7889 24.0164 98.8871 23.8216C98.9853 23.6268 99.5745 23.4319 99.7709 23.1397C99.9673 22.8475 99.3781 22.6527 100.851 20.6073C102.324 18.5618 105.27 17.1982 105.172 17.6852C105.074 18.1722 102.717 25.2826 102.717 26.1592C102.717 27.0358 102.619 28.6917 105.172 29.4709C107.526 30.1893 108.314 28.4969 107.725 27.8151C107.136 27.1332 105.466 28.4969 104.877 27.1332C104.288 25.7696 105.761 23.8216 107.234 20.3151C108.707 16.8086 108.02 15.9319 107.921 15.7371C107.823 15.5423 107.136 15.5423 106.939 15.3475C106.743 15.1527 106.841 14.7631 106.547 14.6657C106.252 14.5683 105.068 14.511 104.779 14.5683L104.769 14.5703C104.26 14.6711 102.208 15.0777 99.5745 18.367Z" fill="#14171D"/>
<path fill-rule="evenodd" clip-rule="evenodd" d="M67.7583 19.7306C67.4637 19.5358 66.1871 19.341 63.4376 22.1657C61.1061 24.5609 60.6104 25.4854 60.3938 25.8893C60.355 25.9617 60.3251 26.0174 60.2952 26.0618C60.0989 26.354 59.7061 27.7177 60.7862 28.4969C61.2721 28.8473 61.6586 29.0796 61.9368 29.2468C62.2772 29.4513 62.4556 29.5585 62.4556 29.6657C62.4556 29.8605 50.9664 40.7696 50.279 41.354C50.1266 41.4836 49.7181 41.8768 49.1297 42.4432C47.065 44.4303 42.785 48.5497 39.5754 50.8995C35.4511 53.919 33.2908 55.38 31.916 56.0618C30.5412 56.7436 27.5953 57.8151 25.2385 56.6462C22.8817 55.4774 22.1944 53.0423 22.7835 49.341C23.3727 45.6397 25.8277 42.3281 31.0322 38.5294C27.1043 39.406 25.4349 41.354 22.9799 44.9579C20.525 48.5618 21.3106 55.7696 22.5871 57.2306C23.8637 58.6917 26.2205 59.0813 27.0061 59.0813C27.0698 59.0813 27.1536 59.089 27.2594 59.0987C28.4577 59.2088 32.4819 59.5784 42.2268 51.9709C51.9428 44.386 65.0379 30.5881 67.468 28.0276C67.6905 27.7932 67.8236 27.6529 67.8565 27.6203C68.0372 27.441 69.008 26.8287 70.1087 26.1344C71.4002 25.3197 72.8706 24.3922 73.4538 23.919C73.4538 24.6982 74.043 26.5488 74.7304 26.9384C75.0959 27.1456 74.81 27.371 74.4535 27.6521C73.9742 28.03 73.3673 28.5085 74.043 29.1787C74.8959 30.0247 76.6943 29.3735 77.3817 29.0813C77.927 28.8495 83.1057 26.1666 85.3225 25.0181C85.9005 24.7186 86.2772 24.5235 86.3178 24.5034C86.3657 24.4796 86.3727 24.6127 86.3844 24.8375C86.4208 25.5328 86.5029 27.105 87.9871 27.6203C89.9511 28.3021 92.1115 27.8151 91.9151 26.0618C91.8764 25.7168 91.1225 25.8706 90.3363 26.031C89.5687 26.1876 88.7704 26.3505 88.5763 26.0618C88.1835 25.4774 89.4601 21.3865 92.4061 19.5358C93.7808 18.4644 91.2277 17.6852 90.7367 17.7826C90.6974 17.7904 90.6725 17.6744 90.6311 17.482C90.4457 16.6197 89.9306 14.2237 86.3178 14.5683C82.5408 14.9285 79.9458 16.8874 78.7314 17.8041C78.304 18.1268 78.0476 18.3203 77.9709 18.2696C77.8347 18.1795 77.8665 18.0061 77.9011 17.8168C77.9414 17.5968 77.9857 17.3553 77.7745 17.1982C77.3817 16.906 75.1232 17.2956 71.3916 20.5099C68.6892 22.8377 66.9653 24.8591 66.0708 25.9079C65.7302 26.3073 65.5099 26.5656 65.4016 26.6462C65.0088 26.9384 63.634 27.9125 62.9466 27.1332C62.3249 26.4285 66.442 22.4575 67.6708 21.2723C67.8007 21.1469 67.8984 21.0528 67.9547 20.9969C68.5439 20.4125 67.9547 19.8072 67.7583 19.7306ZM81.997 18.4644C85.2179 16.0488 87.6598 16.2891 88.4781 16.7112C88.7727 16.8631 89.8529 17.6852 88.8709 19.4384C88.1423 20.7393 86.5487 21.7721 85.6144 22.3776C85.2895 22.5881 85.0443 22.747 84.943 22.8475C84.5502 23.2371 78.5601 26.4514 77.9709 26.5488C77.3817 26.6462 75.7124 26.4514 75.9088 24.9904C76.1052 23.5293 77.9709 21.4839 81.997 18.4644Z" fill="#14171D"/>
</svg>
