<svg width="23" height="13" viewBox="0 0 23 13" fill="none" xmlns="http://www.w3.org/2000/svg">
<path fill-rule="evenodd" clip-rule="evenodd" d="M15.3165 12.1199C15.235 12.0386 15.1704 11.9421 15.1263 11.8358C15.0822 11.7295 15.0594 11.6155 15.0594 11.5004C15.0594 11.3853 15.0822 11.2713 15.1263 11.165C15.1704 11.0587 15.235 10.9622 15.3165 10.8809L19.9487 6.25046L15.3165 1.62001C15.2352 1.53865 15.1706 1.44207 15.1266 1.33578C15.0826 1.22949 15.0599 1.11556 15.0599 1.00051C15.0599 0.885461 15.0826 0.771536 15.1266 0.665244C15.1706 0.558951 15.2352 0.462371 15.3165 0.381018C15.3979 0.299665 15.4944 0.235132 15.6007 0.191105C15.707 0.147076 15.8209 0.124416 15.936 0.124416C16.051 0.124416 16.165 0.147076 16.2713 0.191104C16.3776 0.235132 16.4741 0.299665 16.5555 0.381018L21.8054 5.63096C21.8869 5.71224 21.9516 5.8088 21.9957 5.9151C22.0398 6.0214 22.0625 6.13536 22.0625 6.25045C22.0625 6.36555 22.0398 6.47951 21.9957 6.58581C21.9516 6.69211 21.8869 6.78867 21.8054 6.86995L16.5555 12.1199C16.4742 12.2014 16.3777 12.266 16.2714 12.3101C16.1651 12.3542 16.0511 12.377 15.936 12.377C15.8209 12.377 15.7069 12.3542 15.6006 12.3101C15.4943 12.266 15.3978 12.2014 15.3165 12.1199Z" fill="#0D0A0B"/>
<path fill-rule="evenodd" clip-rule="evenodd" d="M21.0586 6.25001C21.0586 6.48207 20.9664 6.70463 20.8023 6.86872C20.6382 7.03281 20.4157 7.125 20.1836 7.125L1.8088 7.125C1.57674 7.125 1.35418 7.03282 1.19009 6.86872C1.02599 6.70463 0.933807 6.48207 0.933807 6.25001C0.933807 6.01795 1.02599 5.79539 1.19009 5.6313C1.35418 5.46721 1.57674 5.37502 1.8088 5.37502L20.1836 5.37502C20.4157 5.37502 20.6382 5.4672 20.8023 5.6313C20.9664 5.79539 21.0586 6.01795 21.0586 6.25001Z" fill="#0D0A0B"/>
</svg>
