<svg width="32" height="33" viewBox="0 0 32 33" fill="none" xmlns="http://www.w3.org/2000/svg">
<g clip-path="url(#clip0_1906_4812)">
<path d="M7.49917 11.604C7.2602 11.3651 6.87172 11.3651 6.63281 11.604C6.39323 11.8436 6.39323 12.2315 6.63281 12.4705C6.87178 12.71 7.26027 12.71 7.49917 12.4705C7.7387 12.2315 7.7387 11.8436 7.49917 11.604Z" fill="#E30517"/>
<path d="M15.7959 28.3553C16.0661 27.9894 16.2121 27.5485 16.2121 27.085C16.2121 25.9025 15.2501 24.9404 14.0676 24.9404H3.65123C3.07813 24.9404 2.53959 25.1635 2.13475 25.5684C1.72972 25.9733 1.50668 26.5119 1.50668 27.085C1.50668 27.5598 1.66207 27.9989 1.92427 28.3546C0.948592 28.8676 0.28125 29.8909 0.28125 31.0676V31.6804C0.28125 32.0188 0.555638 32.2931 0.893996 32.2931H16.8248C17.1631 32.2931 17.4375 32.0188 17.4375 31.6804V31.0676C17.4375 29.8914 16.7709 28.8686 15.7959 28.3553ZM3.00123 26.4349C3.1747 26.2613 3.40558 26.1658 3.65123 26.1658H14.0676C14.5744 26.1658 14.9866 26.5781 14.9866 27.0849C14.9866 27.3306 14.891 27.5614 14.7175 27.7349C14.544 27.9084 14.3131 28.004 14.0675 28.004H3.65123C3.14443 28.004 2.73217 27.5917 2.73217 27.0849C2.73217 26.8393 2.8277 26.6084 3.00123 26.4349ZM1.50668 31.0676C1.50668 30.0541 2.33132 29.2295 3.34486 29.2295H3.65123H14.0676H14.3739C15.3875 29.2295 16.2121 30.0541 16.2121 31.0676H1.50668Z" fill="#E30517"/>
<path d="M31.0823 26.6638C30.8742 26.3413 30.6259 26.0561 30.3442 25.8162L27.4812 23.319C27.4589 23.2855 27.433 23.2536 27.4034 23.224C27.3537 23.1743 27.2973 23.1355 27.2374 23.1065L25.5059 21.5964L17.4918 14.6055C17.8199 14.2625 18.0005 13.8141 18.0005 13.3372C18.0005 12.8459 17.8093 12.3842 17.4617 12.0366C17.3101 11.8852 17.1378 11.7661 16.9536 11.6789L17.6951 10.9375C17.9023 10.9926 18.1152 11.0208 18.3283 11.0208C18.9559 11.0207 19.5834 10.7819 20.0611 10.3042C20.5242 9.84114 20.7793 9.22563 20.7793 8.57104C20.7793 7.91644 20.5242 7.30094 20.0612 6.83788L14.8622 1.63898C14.3991 1.17592 13.7835 0.920898 13.1288 0.920898C12.4743 0.920898 11.8589 1.17592 11.3959 1.63898C10.756 2.27893 10.5453 3.18757 10.7626 4.0051L3.3652 11.4024C3.16079 11.3481 2.94811 11.3194 2.73083 11.3194C2.07592 11.3194 1.46066 11.5742 0.997979 12.0369C0.0423402 12.9925 0.0423402 14.5475 0.997979 15.5032L6.19695 20.7022C6.67483 21.18 7.30246 21.4189 7.9301 21.4189C8.5578 21.4189 9.18543 21.18 9.66331 20.7022C10.3033 20.0622 10.5139 19.1536 10.2966 18.3361L11.0365 17.5961C11.1254 17.7818 11.2461 17.9531 11.396 18.1029C11.7432 18.4501 12.2047 18.6413 12.6959 18.6413C13.1723 18.6413 13.6206 18.461 13.9641 18.1333L22.5 27.9406C22.5235 27.9773 22.551 28.0123 22.5831 28.0444C22.594 28.0554 22.6057 28.0654 22.6173 28.0753L25.1608 30.9977C25.2241 31.0724 25.2917 31.1458 25.3618 31.2159C26.0604 31.9143 26.9831 32.2933 27.9519 32.2933C28.1227 32.2933 28.295 32.2815 28.4676 32.2576C29.6214 32.0979 30.6185 31.4077 31.2032 30.3637C31.8437 29.2195 31.796 27.7669 31.0823 26.6638ZM12.2625 2.50552C12.4941 2.27396 12.8018 2.14639 13.1288 2.14639C13.4563 2.14639 13.7642 2.27396 13.9957 2.50552L19.1947 7.70449C19.4263 7.93605 19.5538 8.24383 19.5538 8.5711C19.5538 8.89836 19.4263 9.20615 19.1946 9.4377C18.717 9.91546 17.9397 9.91546 17.462 9.4377L12.2628 4.23849C12.2627 4.23837 12.2626 4.23831 12.2625 4.23818C11.7848 3.76049 11.7848 2.98322 12.2625 2.50552ZM8.79677 19.8356C8.31895 20.3135 7.54131 20.3135 7.06349 19.8356L1.86453 14.6367C1.38664 14.1588 1.38664 13.3813 1.86453 12.9034C2.09565 12.6722 2.40337 12.5449 2.73083 12.5449C3.05822 12.5449 3.36575 12.6721 3.59682 12.9032L8.79671 18.103C9.27453 18.5807 9.27453 19.358 8.79677 19.8356ZM11.3766 15.5231L9.66325 17.2365L4.46373 12.037L11.3959 5.10467L16.5954 10.3042L14.8789 12.0207C14.8734 12.0259 14.8679 12.0311 14.862 12.0369L11.3977 15.5013C11.3905 15.5084 11.3836 15.5157 11.3766 15.5231ZM13.5644 16.8014C13.5632 16.8026 13.562 16.8038 13.5608 16.805L13.1293 17.2365C13.0136 17.3522 12.8597 17.4159 12.6959 17.4159C12.5321 17.4159 12.3781 17.3522 12.2625 17.2364C12.1466 17.1206 12.0828 16.9666 12.0828 16.8027C12.0828 16.6423 12.144 16.4913 12.2551 16.3775L15.7356 12.897C15.9741 12.665 16.3598 12.6679 16.5955 12.9034C16.7113 13.0192 16.7751 13.1733 16.7751 13.3372C16.7751 13.5009 16.7115 13.6546 16.5954 13.7703L16.1665 14.1993C16.1635 14.2022 16.1606 14.2051 16.1577 14.2081L13.5644 16.8014ZM14.8333 17.2655L16.6241 15.4747L24.2064 22.0884L21.4396 24.8553L14.8333 17.2655ZM22.246 25.7819L25.132 22.8958L26.0576 23.7032L23.0524 26.7085L22.246 25.7819ZM30.134 29.7651C29.7385 30.4711 29.07 30.9371 28.2997 31.0438C27.5312 31.1501 26.7761 30.897 26.2282 30.3493C26.1811 30.3023 26.136 30.2532 26.0939 30.2034C26.092 30.2011 26.09 30.1988 26.088 30.1965L23.8588 27.6351L26.9833 24.5106L29.5415 26.742C29.5434 26.7437 29.5453 26.7454 29.5474 26.7471C29.7388 26.9099 29.9088 27.1054 30.0529 27.3289C30.5163 28.0448 30.5488 29.024 30.134 29.7651Z" fill="#E30517"/>
<path d="M11.8333 7.27125C11.5939 7.03198 11.2061 7.03198 10.9667 7.27125L8.36696 9.87101C8.12768 10.1103 8.12768 10.4983 8.36696 10.7375C8.48663 10.8572 8.64343 10.917 8.80023 10.917C8.95703 10.917 9.11383 10.8571 9.2335 10.7375L11.8333 8.13774C12.0725 7.89852 12.0725 7.51059 11.8333 7.27125Z" fill="#E30517"/>
</g>
<defs>
<clipPath id="clip0_1906_4812">
<rect width="32" height="31.3725" fill="white" transform="translate(0 0.921875)"/>
</clipPath>
</defs>
</svg>
