<svg width="32" height="32" viewBox="0 0 32 32" fill="none" xmlns="http://www.w3.org/2000/svg">
<g clip-path="url(#clip0_1906_4829)">
<path d="M31.9464 19.5127L31.9512 19.5111L26.6974 8.04771L27.9715 7.41359L27.4947 6.45893L26.2526 7.07759L26.0846 6.71119C25.9618 6.44346 25.6453 6.32593 25.3775 6.44866C25.2614 6.50193 25.1683 6.59506 25.115 6.71119L24.9651 7.03866C24.0611 6.61879 23.0765 6.40093 22.0798 6.40026H17.5999V5.3336H18.6665V4.26694H17.7497L18.1332 2.73256C18.4276 1.55437 17.7112 0.360577 16.533 0.0661133C15.3548 -0.228284 14.161 0.48811 13.8666 1.6663C13.7791 2.0163 13.7791 2.38249 13.8666 2.73249L14.25 4.26688H13.3332V5.33354H14.3999V6.40019H9.92259C8.92487 6.40099 7.93927 6.61939 7.03462 7.04019L6.88475 6.71272C6.76202 6.44499 6.44542 6.32746 6.17769 6.45019C6.06156 6.50346 5.96842 6.59659 5.91516 6.71272L5.74716 7.07912L4.50504 6.45779L4.02824 7.41352L5.30236 8.05031L0.04854 19.5111C0.0161403 19.5807 -0.000392908 19.6567 7.08831e-06 19.7335C0.0023404 21.7943 1.67246 23.4645 3.73331 23.4668H9.0666C11.1274 23.4645 12.7976 21.7943 12.7999 19.7335C12.7986 19.6569 12.7804 19.5815 12.7466 19.5127L7.47834 8.00611C8.24414 7.65065 9.07833 7.46665 9.92259 7.46692H14.3999V26.9793L12.5791 28.8001H10.6666C9.1946 28.8018 8.00167 29.9947 7.99994 31.4667C7.99994 31.7612 8.23874 32 8.53327 32H23.4665C23.761 32 23.9998 31.7612 23.9998 31.4667C23.9981 29.9947 22.8052 28.8018 21.3332 28.8001H19.4206L17.5999 26.9793V7.46692H22.0798C22.9241 7.46665 23.7583 7.65065 24.5241 8.00611L19.2484 19.5111C19.216 19.5807 19.1994 19.6567 19.1998 19.7335C19.2022 21.7943 20.8723 23.4645 22.9332 23.4668H28.2664C30.3273 23.4645 31.9974 21.7943 31.9997 19.7335C31.9985 19.6569 31.9803 19.5815 31.9464 19.5127ZM9.0666 22.4001H3.73331C2.46652 22.3987 1.375 21.5077 1.12 20.2668H11.6799C11.425 21.5077 10.3334 22.3987 9.0666 22.4001ZM11.4356 19.2002H1.36426L6.26342 8.51171C6.35289 8.53571 6.44702 8.53571 6.53649 8.51171L11.4356 19.2002ZM15.1076 1.50217C15.5229 1.00937 16.2591 0.946639 16.7519 1.36197C16.8025 1.40464 16.8495 1.45157 16.8921 1.50217C17.1079 1.77657 17.1841 2.1355 17.0985 2.47389L16.65 4.26694H15.3497L14.9012 2.47389C14.8157 2.1355 14.8919 1.77657 15.1076 1.50217ZM15.4665 6.40026V5.3336H16.5332V6.40026H15.4665ZM16.5332 7.46692V26.6668H15.4665V7.46692H16.5332ZM21.3332 29.8667C22.011 29.8675 22.6151 30.2946 22.842 30.9334H9.1578C9.38466 30.2946 9.98872 29.8675 10.6666 29.8667H21.3332ZM17.9124 28.8001H14.0874L15.154 27.7334H16.8457L17.9124 28.8001ZM25.4622 8.51331C25.5503 8.54431 25.6469 8.54031 25.7321 8.50211L30.6355 19.2002H20.5641L25.4622 8.51331ZM28.2664 22.4001H22.9332C21.6664 22.3987 20.5748 21.5077 20.3198 20.2668H30.8797C30.6248 21.5077 29.5332 22.3987 28.2664 22.4001Z" fill="#E30517"/>
</g>
<defs>
<clipPath id="clip0_1906_4829">
<rect width="32" height="32" fill="white"/>
</clipPath>
</defs>
</svg>
