<svg width="26" height="19" fill="none" xmlns="http://www.w3.org/2000/svg"><path d="M5.081 19c-1.53 0-2.76-.496-3.689-1.489C.464 16.471 0 15.101 0 13.4c0-3.072.975-5.695 2.924-7.87C4.873 3.31 7.263 1.466 10.094 0l.974 1.418c-1.16.756-2.25 1.701-3.272 2.836A12.12 12.12 0 005.43 7.869l1.879 1.418a6.641 6.641 0 011.81 2.127c.464.804.696 1.607.696 2.41 0 1.466-.464 2.695-1.392 3.687C7.54 18.504 6.427 19 5.08 19zm14.27 0c-1.531 0-2.76-.496-3.689-1.489-.928-1.04-1.392-2.41-1.392-4.112 0-3.072.975-5.695 2.924-7.87 1.949-2.22 4.338-4.064 7.17-5.529l.974 1.418c-1.16.756-2.25 1.701-3.272 2.836A12.12 12.12 0 0019.7 7.869l1.879 1.418a6.641 6.641 0 011.81 2.127c.464.804.696 1.607.696 2.41 0 1.466-.464 2.695-1.392 3.687C21.81 18.504 20.697 19 19.35 19z" fill="#0D0A0B"/></svg>