<?xml version="1.0" standalone="no"?>
<!DOCTYPE svg PUBLIC "-//W3C//DTD SVG 20010904//EN"
 "http://www.w3.org/TR/2001/REC-SVG-20010904/DTD/svg10.dtd">
<svg version="1.0" xmlns="http://www.w3.org/2000/svg"
 width="1024.000000pt" height="1024.000000pt" viewBox="0 0 1024.000000 1024.000000"
 preserveAspectRatio="xMidYMid meet">
<metadata>
Created by potrace 1.14, written by Peter Selinger 2001-2017
</metadata>
<g transform="translate(0.000000,1024.000000) scale(0.100000,-0.100000)"
fill="#000000" stroke="none">
<path d="M4418 10104 c-2 -1 -32 -5 -68 -9 -36 -3 -100 -13 -142 -21 -43 -9
-85 -17 -95 -19 -10 -2 -18 -4 -18 -5 0 -1 -10 -3 -22 -6 -32 -6 -213 -64
-253 -81 -169 -73 -392 -196 -472 -262 -7 -6 -42 -34 -78 -63 -79 -63 -141
-120 -189 -172 -20 -21 -45 -48 -56 -60 -11 -12 -36 -41 -55 -66 -19 -25 -39
-50 -45 -56 -82 -88 -295 -478 -295 -541 0 -7 -4 -13 -8 -13 -5 0 -13 -19 -19
-42 -6 -24 -19 -68 -28 -98 -28 -92 -46 -183 -38 -190 5 -4 85 -58 178 -121
94 -63 175 -117 180 -122 6 -4 33 -22 60 -40 28 -17 55 -35 60 -40 6 -4 44
-30 85 -57 41 -28 80 -53 85 -58 6 -4 100 -68 210 -142 110 -73 202 -137 203
-142 2 -4 8 -8 14 -8 10 0 122 -74 146 -97 6 -6 21 -15 32 -18 11 -3 20 -11
20 -16 0 -5 5 -9 11 -9 6 0 24 -10 39 -22 15 -13 40 -31 56 -40 45 -27 66 -42
86 -59 10 -9 31 -22 46 -30 15 -8 29 -17 32 -20 3 -3 95 -66 205 -139 110 -73
217 -146 238 -163 20 -16 37 -26 37 -22 0 3 7 0 15 -7 9 -7 21 -18 28 -23 7
-6 37 -26 67 -45 30 -19 57 -37 60 -40 11 -13 223 -150 232 -150 5 0 6 -4 3
-10 -3 -5 -1 -10 6 -10 11 0 84 -45 99 -60 3 -3 33 -23 67 -45 35 -22 63 -43
63 -47 0 -5 5 -8 10 -8 12 0 133 -81 138 -92 2 -5 8 -8 14 -8 6 0 41 -22 79
-50 38 -27 73 -50 77 -50 5 0 17 -9 27 -20 10 -11 24 -20 31 -20 7 0 14 -3 16
-8 2 -4 84 -62 183 -128 99 -67 230 -154 290 -195 61 -41 112 -76 115 -79 3
-3 13 -9 22 -15 41 -24 308 -207 313 -215 5 -7 -38 -34 -112 -69 -18 -8 -33
-19 -33 -23 0 -4 -8 -8 -18 -8 -10 0 -22 -4 -28 -9 -9 -10 -202 -112 -334
-178 -41 -21 -77 -41 -80 -44 -3 -3 -23 -14 -45 -25 -22 -10 -42 -20 -45 -23
-3 -4 -54 -31 -115 -62 -60 -31 -141 -73 -180 -94 -193 -103 -268 -143 -360
-189 -55 -28 -102 -54 -105 -57 -3 -4 -30 -18 -60 -33 -30 -15 -80 -41 -110
-57 -30 -17 -91 -49 -135 -72 -44 -22 -101 -53 -127 -69 -27 -15 -48 -25 -48
-21 0 3 -8 -1 -17 -9 -10 -8 -49 -30 -88 -49 -38 -19 -72 -37 -75 -40 -3 -3
-34 -20 -70 -38 -120 -59 -205 -106 -208 -113 -2 -5 -12 -8 -22 -8 -10 0 -20
-3 -22 -7 -1 -5 -28 -21 -58 -37 -85 -45 -304 -178 -311 -188 -3 -6 -10 -10
-15 -10 -8 -1 -164 -100 -189 -120 -5 -4 -62 -45 -125 -90 -63 -45 -117 -84
-120 -87 -3 -4 -21 -18 -42 -33 -20 -15 -43 -35 -52 -44 -9 -8 -16 -13 -16
-10 0 3 -15 -8 -32 -24 -18 -16 -85 -73 -148 -127 -63 -53 -137 -117 -164
-142 -96 -89 -342 -337 -416 -420 -41 -46 -80 -89 -85 -95 -6 -6 -33 -38 -60
-71 -28 -33 -54 -65 -60 -71 -21 -24 -137 -172 -180 -229 -16 -22 -35 -47 -42
-55 -31 -37 -263 -384 -299 -447 -15 -26 -31 -50 -34 -53 -5 -5 -10 -13 -52
-89 -11 -20 -37 -65 -58 -101 -20 -36 -44 -78 -52 -95 -129 -252 -155 -305
-150 -310 3 -3 0 -5 -6 -5 -7 0 -12 -4 -12 -10 0 -5 -13 -38 -29 -72 -58 -128
-70 -156 -124 -293 -80 -201 -107 -275 -100 -275 3 0 1 -6 -5 -12 -10 -13 -68
-189 -97 -293 -9 -33 -19 -67 -22 -75 -3 -8 -7 -19 -8 -25 -2 -5 -17 -62 -33
-126 -17 -64 -33 -127 -36 -140 -3 -13 -12 -50 -20 -83 l-14 -58 73 4 c54 2
79 8 94 22 12 11 21 15 21 10 0 -5 4 -4 8 1 7 10 78 49 217 119 33 17 61 34
63 38 2 5 12 8 22 8 10 0 21 4 24 8 3 5 47 30 98 57 162 84 243 127 253 136 5
5 17 9 27 9 10 0 18 4 18 9 0 5 12 14 28 20 15 5 68 32 117 59 128 68 320 170
390 206 33 17 62 34 65 37 3 3 21 11 40 19 19 8 37 17 40 20 3 3 39 24 80 45
86 45 187 98 327 172 54 28 123 64 153 80 30 15 57 30 60 33 5 5 159 85 235
123 22 11 42 23 43 28 2 5 10 9 19 9 8 0 27 8 41 18 15 10 46 26 70 37 23 10
42 22 42 27 0 4 3 7 8 6 7 -2 18 4 167 82 44 24 127 67 185 97 187 98 205 108
212 118 4 6 8 6 8 2 0 -5 12 0 28 10 15 10 54 32 87 48 33 17 62 32 65 35 3 3
61 34 130 69 69 35 130 67 135 71 6 4 87 47 180 95 94 49 193 101 220 117 28
15 71 38 98 49 26 12 47 25 47 30 0 5 6 9 13 9 6 0 23 6 37 13 14 8 63 34 110
59 47 25 130 69 185 98 55 29 132 70 170 90 39 21 111 59 160 85 50 26 122 64
160 85 39 21 129 68 200 105 72 37 153 80 180 95 28 15 93 50 145 77 52 28
133 71 180 95 47 25 130 69 185 98 55 29 132 70 170 90 39 20 124 65 190 100
66 35 140 74 165 88 43 24 212 113 295 155 22 12 43 25 46 30 3 5 9 8 13 8 3
-1 33 12 66 29 33 17 63 30 66 29 4 0 10 3 13 8 3 5 40 27 81 48 41 22 107 56
145 77 39 21 88 47 110 58 22 11 65 33 95 50 30 16 61 30 68 30 6 0 12 3 12 8
0 4 28 20 63 37 34 16 64 32 67 35 5 5 46 27 282 150 88 45 93 50 102 104 5
27 19 97 32 156 3 14 7 36 10 50 3 14 7 32 9 40 3 8 7 33 10 55 4 22 11 58 17
80 5 22 12 51 14 65 3 14 14 72 26 130 11 58 22 112 22 120 1 9 5 21 10 28 4
6 5 12 2 12 -2 0 2 27 10 60 7 32 16 73 19 89 3 17 12 61 20 98 9 37 18 83 20
102 3 19 10 55 16 80 6 25 13 55 14 66 2 11 17 88 34 170 18 83 34 166 37 185
3 19 8 38 10 41 2 3 6 21 9 40 3 19 10 54 15 79 5 25 12 57 15 73 6 34 14 71
20 100 20 92 24 120 19 128 -3 5 -1 9 5 9 5 0 10 8 10 18 0 16 8 57 11 57 1 0
5 20 14 75 2 14 6 36 10 50 3 14 8 36 10 50 6 40 35 176 40 191 3 8 7 30 10
49 3 19 8 46 11 60 3 14 16 82 31 151 14 69 27 134 29 145 2 10 4 19 5 19 1 0
4 14 6 30 2 17 5 39 8 50 4 15 -7 28 -43 53 -26 17 -53 32 -59 32 -7 0 -12 3
-12 8 0 4 -51 41 -112 82 -62 40 -114 77 -116 82 -2 4 -10 8 -18 8 -8 0 -14 5
-14 10 0 6 -5 10 -10 10 -12 0 -73 41 -78 53 -2 4 -10 7 -17 7 -7 0 -15 3 -17
8 -1 4 -120 85 -263 181 -143 96 -262 177 -265 180 -3 3 -17 12 -32 20 -15 8
-36 21 -45 30 -10 9 -30 22 -45 30 -15 8 -36 21 -46 30 -25 22 -54 41 -74 47
-9 3 -19 12 -22 20 -3 8 -12 14 -21 14 -8 0 -15 5 -15 10 0 6 -4 10 -10 10 -5
0 -41 22 -80 50 -39 28 -72 50 -75 50 -3 0 -15 8 -26 18 -10 11 -32 25 -47 33
-15 8 -36 22 -46 32 -11 9 -25 17 -32 17 -7 0 -14 4 -16 8 -1 5 -55 43 -118
85 -63 42 -119 80 -125 85 -5 4 -50 34 -100 67 -49 32 -91 63 -93 67 -2 4 -8
8 -12 8 -5 0 -30 15 -56 33 -143 98 -279 187 -286 187 -4 0 -8 5 -8 10 0 6 -6
10 -14 10 -8 0 -16 4 -18 8 -1 5 -37 31 -78 58 -41 27 -77 51 -80 54 -3 3 -45
32 -95 64 -49 32 -91 63 -93 68 -2 4 -8 8 -13 8 -10 0 -244 156 -267 178 -7 6
-17 12 -22 12 -5 0 -15 6 -22 13 -7 6 -42 31 -78 54 -36 24 -74 50 -85 59 -11
9 -30 21 -42 27 -13 5 -23 14 -23 19 0 4 -4 8 -9 8 -5 0 -92 56 -192 124 -101
68 -209 138 -239 157 -56 33 -225 123 -225 120 0 -3 -38 12 -98 38 -26 11 -51
21 -55 22 -4 1 -11 3 -17 5 -10 3 -125 37 -135 39 -3 1 -23 5 -45 10 -22 4
-44 10 -49 13 -5 3 -21 6 -35 7 -14 1 -42 5 -61 8 -85 15 -135 19 -297 21 -95
2 -174 2 -175 0z"/>
</g>
</svg>
